<svg width="22" height="23" viewBox="0 0 22 23" fill="none" xmlns="http://www.w3.org/2000/svg">
<path d="M20.1138 9.47241L21.1978 10.5564C21.6567 11.0154 21.6567 11.7576 21.1978 12.2117L11.7105 21.7039C11.2515 22.1628 10.5093 22.1628 10.0552 21.7039L0.562988 12.2117C0.104004 11.7527 0.104004 11.0105 0.562988 10.5564L1.64697 9.47241C2.11084 9.00854 2.86768 9.01831 3.32178 9.49194L8.92725 15.3757V1.34253C8.92725 0.693115 9.44971 0.170654 10.0991 0.170654H11.6616C12.311 0.170654 12.8335 0.693115 12.8335 1.34253V15.3757L18.439 9.49194C18.8931 9.01343 19.6499 9.00366 20.1138 9.47241Z" fill="white"/>
</svg>
