<svg width="93" height="33" viewBox="0 0 93 33" fill="none" xmlns="http://www.w3.org/2000/svg">
<path d="M10.6468 22.702L9.83077 19.51H5.53477L4.74277 22.702H1.45477L5.48677 6.69396H9.87877L13.9108 22.702H10.6468ZM6.35077 16.342H9.03877L7.69477 11.014L6.35077 16.342ZM23.0647 11.374L26.2327 10.702V22.462C26.2327 25.486 23.7847 27.934 20.7607 27.934H16.7527L17.1367 24.742H20.3287C21.8167 24.742 23.0407 23.542 23.0647 22.03C22.1767 22.51 21.1927 22.798 20.1367 22.798C16.7767 22.798 14.0407 20.062 14.0407 16.702C14.0407 13.342 16.7767 10.63 20.1367 10.63C21.1927 10.63 22.1767 10.894 23.0647 11.374ZM20.1367 19.606C21.7207 19.606 23.0407 18.31 23.0407 16.702C23.0407 15.094 21.7207 13.798 20.1367 13.798C18.5287 13.798 17.2327 15.094 17.2327 16.702C17.2327 18.31 18.5287 19.606 20.1367 19.606ZM32.9881 10.63C33.4441 10.63 33.9001 10.678 34.3321 10.798L34.0681 14.086C33.7561 13.894 33.3721 13.798 32.9881 13.798C31.7401 13.798 30.7321 14.806 30.7321 16.054V22.702H27.5641V10.702L30.7321 11.11C31.4281 10.798 32.1961 10.63 32.9881 10.63ZM35.6501 22.702V10.702H38.8181V22.702H35.6501ZM37.2341 9.86196C36.3461 9.86196 35.6501 9.16597 35.6501 8.27797C35.6501 7.38997 36.3461 6.69396 37.2341 6.69396C38.1221 6.69396 38.8181 7.38997 38.8181 8.27797C38.8181 9.16597 38.1221 9.86196 37.2341 9.86196ZM55.6363 10.702H58.9723L55.3003 22.702H51.4603L49.4443 16.126L47.4283 22.702H43.5883L39.8923 10.702H43.2283L45.5083 18.118L47.7643 10.726V10.702H51.1003V10.726L53.3803 18.118L55.6363 10.702ZM71.6636 19.51H72.1916V22.702H70.2236C69.5036 22.702 68.8556 22.342 68.4716 21.79C67.5116 22.414 66.3836 22.798 65.1596 22.798C61.7996 22.798 59.0876 20.062 59.0876 16.702C59.0876 13.342 61.7996 10.63 65.1596 10.63C66.2156 10.63 67.1996 10.894 68.0636 11.35L71.2556 10.702V19.102C71.2556 19.318 71.4236 19.51 71.6636 19.51ZM65.1596 19.606C66.7676 19.606 68.0636 18.31 68.0636 16.702C68.0636 15.094 66.7676 13.798 65.1596 13.798C63.5756 13.798 62.2556 15.094 62.2556 16.702C62.2556 18.31 63.5756 19.606 65.1596 19.606ZM80.8301 10.702H83.9981V22.462C83.9981 25.486 81.5501 27.934 78.5501 27.934H74.5421L74.9021 24.742H78.0941C79.5101 24.742 80.6621 23.686 80.8061 22.294C80.1341 22.606 79.3661 22.798 78.5741 22.798C75.5741 22.798 73.1501 20.35 73.1501 17.35V10.702H76.3421V17.35C76.3421 18.598 77.3261 19.606 78.5741 19.606C79.8221 19.606 80.8301 18.598 80.8301 17.35V10.702Z" fill="#042C2C"/>
<path d="M28.713 27.606H31.673V28.11H28.713V27.606ZM28.777 30.19H32.145V30.702H28.185V25.102H32.025V25.614H28.777V30.19ZM36.0994 30.702L37.8754 28.398L37.8674 28.678L36.1794 26.502H36.8194L38.2034 28.302L37.9634 28.294L39.3474 26.502H39.9714L38.2674 28.702L38.2754 28.398L40.0674 30.702H39.4194L37.9554 28.782L38.1794 28.814L36.7394 30.702H36.0994ZM46.6209 30.742C46.2582 30.742 45.9302 30.6593 45.6369 30.494C45.3435 30.3233 45.1089 30.0806 44.9329 29.766C44.7622 29.446 44.6769 29.0566 44.6769 28.598C44.6769 28.1393 44.7622 27.7526 44.9329 27.438C45.1035 27.118 45.3355 26.8753 45.6289 26.71C45.9222 26.5446 46.2529 26.462 46.6209 26.462C47.0209 26.462 47.3782 26.5526 47.6929 26.734C48.0129 26.91 48.2635 27.1606 48.4449 27.486C48.6262 27.806 48.7169 28.1766 48.7169 28.598C48.7169 29.0246 48.6262 29.398 48.4449 29.718C48.2635 30.038 48.0129 30.2886 47.6929 30.47C47.3782 30.6513 47.0209 30.742 46.6209 30.742ZM44.4529 32.254V26.502H44.9969V27.766L44.9409 28.606L45.0209 29.454V32.254H44.4529ZM46.5809 30.238C46.8795 30.238 47.1462 30.1713 47.3809 30.038C47.6155 29.8993 47.8022 29.7073 47.9409 29.462C48.0795 29.2113 48.1489 28.9233 48.1489 28.598C48.1489 28.2726 48.0795 27.9873 47.9409 27.742C47.8022 27.4966 47.6155 27.3046 47.3809 27.166C47.1462 27.0273 46.8795 26.958 46.5809 26.958C46.2822 26.958 46.0129 27.0273 45.7729 27.166C45.5382 27.3046 45.3515 27.4966 45.2129 27.742C45.0795 27.9873 45.0129 28.2726 45.0129 28.598C45.0129 28.9233 45.0795 29.2113 45.2129 29.462C45.3515 29.7073 45.5382 29.8993 45.7729 30.038C46.0129 30.1713 46.2822 30.238 46.5809 30.238ZM55.0267 30.742C54.6214 30.742 54.2561 30.6513 53.9307 30.47C53.6107 30.2833 53.3574 30.03 53.1707 29.71C52.9841 29.3846 52.8907 29.014 52.8907 28.598C52.8907 28.1766 52.9841 27.806 53.1707 27.486C53.3574 27.166 53.6107 26.9153 53.9307 26.734C54.2507 26.5526 54.6161 26.462 55.0267 26.462C55.4427 26.462 55.8107 26.5526 56.1307 26.734C56.4561 26.9153 56.7094 27.166 56.8907 27.486C57.0774 27.806 57.1707 28.1766 57.1707 28.598C57.1707 29.014 57.0774 29.3846 56.8907 29.71C56.7094 30.03 56.4561 30.2833 56.1307 30.47C55.8054 30.6513 55.4374 30.742 55.0267 30.742ZM55.0267 30.238C55.3307 30.238 55.6001 30.1713 55.8347 30.038C56.0694 29.8993 56.2534 29.7073 56.3867 29.462C56.5254 29.2113 56.5947 28.9233 56.5947 28.598C56.5947 28.2673 56.5254 27.9793 56.3867 27.734C56.2534 27.4886 56.0694 27.2993 55.8347 27.166C55.6001 27.0273 55.3334 26.958 55.0347 26.958C54.7361 26.958 54.4694 27.0273 54.2347 27.166C54.0001 27.2993 53.8134 27.4886 53.6747 27.734C53.5361 27.9793 53.4667 28.2673 53.4667 28.598C53.4667 28.9233 53.5361 29.2113 53.6747 29.462C53.8134 29.7073 54.0001 29.8993 54.2347 30.038C54.4694 30.1713 54.7334 30.238 55.0267 30.238ZM61.7704 30.702V26.502H62.3144V27.646L62.2584 27.446C62.3757 27.126 62.573 26.8833 62.8504 26.718C63.1277 26.5473 63.4717 26.462 63.8824 26.462V27.014C63.861 27.014 63.8397 27.014 63.8184 27.014C63.797 27.0086 63.7757 27.006 63.7544 27.006C63.3117 27.006 62.965 27.142 62.7144 27.414C62.4637 27.6806 62.3384 28.062 62.3384 28.558V30.702H61.7704ZM69.8665 30.742C69.4718 30.742 69.1678 30.6353 68.9545 30.422C68.7411 30.2086 68.6345 29.9073 68.6345 29.518V25.574H69.2025V29.486C69.2025 29.7313 69.2638 29.9206 69.3865 30.054C69.5145 30.1873 69.6958 30.254 69.9305 30.254C70.1811 30.254 70.3891 30.182 70.5545 30.038L70.7545 30.446C70.6425 30.5473 70.5065 30.622 70.3465 30.67C70.1918 30.718 70.0318 30.742 69.8665 30.742ZM67.8825 26.974V26.502H70.4825V26.974H67.8825Z" fill="#042C2C"/>
</svg>
