<svg width="26" height="2" viewBox="0 0 26 2" fill="none" xmlns="http://www.w3.org/2000/svg">
<g clip-path="url(#clip0_17_35)">
<path d="M23.0694 0.5625C23.7323 0.5625 24.2957 0.571615 24.7598 0.589844C25.2238 0.608073 25.4558 0.630208 25.4558 0.65625V1.125C25.4558 1.16797 25.2487 1.20866 24.8344 1.24707C24.42 1.28483 23.8524 1.31787 23.1315 1.34619C22.4106 1.37451 21.5695 1.39681 20.6083 1.41309C19.6305 1.42936 18.5947 1.4375 17.5009 1.4375H17.1031C16.7717 1.4375 16.49 1.43294 16.2579 1.42383C16.0259 1.41471 15.9099 1.40365 15.9099 1.39062V1.29688C15.9099 1.28385 16.0259 1.27279 16.2579 1.26367C16.49 1.25456 16.7717 1.25 17.1031 1.25H17.5009C18.3793 1.25 19.1292 1.23779 19.7507 1.21338C20.3721 1.18896 20.6829 1.15951 20.6829 1.125V1H16.7054C16.0425 1 15.479 0.990885 15.015 0.972656C14.5509 0.954427 14.3189 0.932292 14.3189 0.90625V0.65625C14.3189 0.630208 14.5509 0.608073 15.015 0.589844C15.479 0.571615 16.0425 0.5625 16.7054 0.5625H23.0694ZM8.75045 0.5625C9.41336 0.5625 9.97684 0.571615 10.4409 0.589844C10.9049 0.608073 11.1369 0.630208 11.1369 0.65625V1.125C11.1369 1.16797 10.9298 1.20866 10.5155 1.24707C10.1011 1.28483 9.53351 1.31787 8.81259 1.34619C8.09168 1.37451 7.25061 1.39681 6.28938 1.41309C5.31159 1.42936 4.27579 1.4375 3.18198 1.4375H2.78423C2.45278 1.4375 2.17104 1.43294 1.93902 1.42383C1.707 1.41471 1.59099 1.40365 1.59099 1.39062V1.29688C1.59099 1.28385 1.707 1.27279 1.93902 1.26367C2.17104 1.25456 2.45278 1.25 2.78423 1.25H3.18198C4.06034 1.25 4.81026 1.23779 5.43174 1.21338C6.05322 1.18896 6.36396 1.15951 6.36396 1.125V1H2.38649C1.72357 1 1.1601 0.990885 0.696058 0.972656C0.232019 0.954427 0 0.932292 0 0.90625V0.65625C0 0.630208 0.232019 0.608073 0.696058 0.589844C1.1601 0.571615 1.72357 0.5625 2.38649 0.5625H8.75045Z" fill="white"/>
</g>
<defs>
<clipPath id="clip0_17_35">
<rect width="25.4558" height="1" fill="white" transform="matrix(1 0 0 -1 0 1.5)"/>
</clipPath>
</defs>
</svg>
