<svg width="15" height="12" viewBox="0 0 15 12" fill="none" xmlns="http://www.w3.org/2000/svg">
<path d="M14.2402 4.22266C14.2858 4.17708 14.3405 4.17025 14.4043 4.20215C14.4681 4.23405 14.5 4.2819 14.5 4.3457V9.9375C14.5 10.3021 14.3724 10.612 14.1172 10.8672C13.862 11.1224 13.5521 11.25 13.1875 11.25H1.8125C1.44792 11.25 1.13802 11.1224 0.882812 10.8672C0.627604 10.612 0.5 10.3021 0.5 9.9375V4.3457C0.5 4.2819 0.529622 4.23405 0.588867 4.20215C0.648112 4.17025 0.705078 4.17708 0.759766 4.22266C1.06966 4.45964 1.5026 4.7832 2.05859 5.19336C2.61458 5.60352 3.58984 6.31445 4.98438 7.32617C5.26693 7.53581 5.63607 7.80697 6.0918 8.13965C6.54753 8.47233 7.01693 8.63411 7.5 8.625C7.99219 8.63411 8.46615 8.47005 8.92188 8.13281C9.3776 7.79557 9.74675 7.52669 10.0293 7.32617C11.4238 6.31445 12.3968 5.60352 12.9482 5.19336C13.4997 4.7832 13.9303 4.45964 14.2402 4.22266ZM7.5 7.75C7.18099 7.75911 6.82324 7.61328 6.42676 7.3125C6.03027 7.01172 5.7181 6.7793 5.49023 6.61523C3.67643 5.30273 2.53711 4.47103 2.07227 4.12012C1.60742 3.76921 1.16536 3.42969 0.746094 3.10156C0.673177 3.03776 0.613932 2.96029 0.568359 2.86914C0.522786 2.778 0.5 2.68229 0.5 2.58203V2.0625C0.5 1.69792 0.627604 1.38802 0.882812 1.13281C1.13802 0.877604 1.44792 0.75 1.8125 0.75H13.1875C13.5521 0.75 13.862 0.877604 14.1172 1.13281C14.3724 1.38802 14.5 1.69792 14.5 2.0625V2.58203C14.5 2.68229 14.4772 2.778 14.4316 2.86914C14.3861 2.96029 14.3268 3.03776 14.2539 3.10156C13.8346 3.42969 13.3926 3.76921 12.9277 4.12012C12.4629 4.47103 11.3236 5.30273 9.50977 6.61523C9.2819 6.7793 8.96973 7.01172 8.57324 7.3125C8.17676 7.61328 7.81901 7.75911 7.5 7.75Z" fill="#EEC044"/>
</svg>
