<svg width="15" height="15" viewBox="0 0 15 15" fill="none" xmlns="http://www.w3.org/2000/svg">
<path d="M14.5854 11.4629C14.5854 11.6387 14.5503 11.873 14.48 12.166C14.4097 12.459 14.3394 12.6875 14.269 12.8516C14.1284 13.1914 13.7183 13.5488 13.0386 13.9238C12.4058 14.2637 11.7847 14.4336 11.1753 14.4336C10.9878 14.4336 10.812 14.4219 10.6479 14.3984C10.4722 14.375 10.2788 14.334 10.0679 14.2754C9.85693 14.2051 9.69873 14.1523 9.59326 14.1172C9.48779 14.082 9.30029 14.0176 9.03076 13.9238C8.76123 13.8184 8.59717 13.7539 8.53857 13.7305C7.88232 13.4961 7.29639 13.2207 6.78076 12.9043C5.93701 12.377 5.05225 11.6504 4.12646 10.7246C3.2124 9.81055 2.4917 8.93164 1.96436 8.08789C1.63623 7.57227 1.35498 6.98633 1.12061 6.33008C1.10889 6.25977 1.05029 6.0957 0.944824 5.83789C0.851074 5.56836 0.780762 5.38086 0.733887 5.27539C0.69873 5.16992 0.651855 5.01172 0.593262 4.80078C0.534668 4.58984 0.493652 4.39648 0.470215 4.2207C0.446777 4.04492 0.435059 3.86914 0.435059 3.69336C0.435059 3.07227 0.60498 2.45117 0.944824 1.83008C1.31982 1.15039 1.67725 0.740234 2.01709 0.599609C2.18115 0.529297 2.40967 0.458984 2.70264 0.388672C2.99561 0.318359 3.22998 0.283203 3.40576 0.283203C3.49951 0.283203 3.56982 0.294922 3.6167 0.318359C3.73389 0.353516 3.90967 0.605469 4.14404 1.07422C4.22607 1.20312 4.33154 1.38477 4.46045 1.61914C4.57764 1.85352 4.69482 2.06445 4.81201 2.25195C4.91748 2.45117 5.01709 2.63281 5.11084 2.79688C5.13428 2.82031 5.19287 2.90234 5.28662 3.04297C5.39209 3.18359 5.46826 3.30664 5.51514 3.41211C5.56201 3.50586 5.58545 3.59961 5.58545 3.69336C5.58545 3.82227 5.48584 3.98633 5.28662 4.18555C5.09912 4.39648 4.89404 4.58398 4.67139 4.74805C4.44873 4.91211 4.23779 5.08789 4.03857 5.27539C3.85107 5.46289 3.75732 5.61523 3.75732 5.73242C3.75732 5.80273 3.7749 5.87891 3.81006 5.96094C3.84521 6.05469 3.87451 6.125 3.89795 6.17188C3.92139 6.21875 3.96826 6.30078 4.03857 6.41797C4.10889 6.52344 4.14404 6.58789 4.14404 6.61133C4.65967 7.52539 5.24561 8.31055 5.90186 8.9668C6.55811 9.62305 7.34326 10.2031 8.25732 10.707C8.26904 10.7188 8.3335 10.7598 8.45068 10.8301C8.56787 10.9004 8.6499 10.9473 8.69678 10.9707C8.74365 10.9941 8.80811 11.0234 8.89014 11.0586C8.98389 11.0938 9.06006 11.1113 9.11865 11.1113C9.24756 11.1113 9.40576 11.0117 9.59326 10.8125C9.78076 10.625 9.95654 10.4199 10.1206 10.1973C10.2847 9.97461 10.4663 9.76367 10.6655 9.56445C10.8647 9.37695 11.0347 9.2832 11.1753 9.2832C11.269 9.2832 11.3628 9.30664 11.4565 9.35352C11.5503 9.40039 11.6675 9.4707 11.8081 9.56445C11.9487 9.66992 12.0366 9.72852 12.0718 9.74023C12.2358 9.8457 12.4116 9.95117 12.5991 10.0566C12.7983 10.1621 13.0151 10.2793 13.2495 10.4082C13.4839 10.5371 13.6597 10.6367 13.7769 10.707C14.2456 10.9414 14.5034 11.123 14.5503 11.252C14.5737 11.2988 14.5854 11.3691 14.5854 11.4629Z" fill="#EEC044"/>
</svg>
